<?xml version="1.0" encoding="UTF-8" standalone="no"?>
<!-- Created with Inkscape (http://www.inkscape.org/) -->

<svg
   width="158.96773mm"
   height="158.96773mm"
   viewBox="0 0 158.96773 158.96773"
   version="1.1"
   id="svg21803"
   xml:space="preserve"
   xmlns="http://www.w3.org/2000/svg"
   xmlns:svg="http://www.w3.org/2000/svg"><defs
     id="defs21800" /><g
     id="layer1"
     transform="translate(-13.483879,-40.096785)"><circle
       style="fill:#ffdd55;stroke-width:0.290979"
       id="path15293"
       cx="92.967743"
       cy="119.58065"
       r="79.483864" /><rect
       style="fill:#4400aa;fill-opacity:1;stroke-width:0.217572"
       id="rect26756-5"
       width="11.532257"
       height="44.177418"
       x="141.95792"
       y="-74.378738"
       transform="rotate(55)" /><path
       id="path25203"
       style="fill:#4400aa;stroke-width:0.262959"
       d="M 90.927266,89.242098 A 28.475805,27.145161 0 0 0 62.451485,116.38721 28.475805,27.145161 0 0 0 90.927266,143.53232 28.475805,27.145161 0 0 0 119.40305,116.38721 28.475805,27.145161 0 0 0 90.927266,89.242098 Z m 5.17e-4,8.625313 a 19.427418,18.519596 0 0 1 19.427237,18.519799 19.427418,18.519596 0 0 1 -19.427237,18.5198 19.427418,18.519596 0 0 1 -19.427238,-18.5198 19.427418,18.519596 0 0 1 19.427238,-18.519799 z" /><rect
       style="fill:#000000;stroke-width:0.145721"
       id="rect26732"
       width="22.354836"
       height="5.1451612"
       x="80.016121"
       y="110.70967"
       ry="0" /><rect
       style="fill:#000000;stroke-width:0.145721"
       id="rect26732-4"
       width="22.354836"
       height="5.1451612"
       x="80.19355"
       y="118.42742"
       ry="0" /><rect
       style="fill:#4400aa;fill-opacity:1;stroke-width:0.217572"
       id="rect26756"
       width="11.532257"
       height="44.177418"
       x="84.80645"
       y="136.96774" /><rect
       style="fill:#4400aa;fill-opacity:1;stroke-width:0.189052"
       id="rect26756-2"
       width="11.532257"
       height="33.354836"
       x="156.21774"
       y="-106.54032"
       transform="rotate(90)" /><rect
       style="fill:#4400aa;fill-opacity:1;stroke-width:0.22853"
       id="rect27384"
       width="10.290323"
       height="31.403227"
       x="138.56451"
       y="72.741936" /><rect
       style="fill:#4400aa;fill-opacity:1;stroke-width:0.22853"
       id="rect27384-8"
       width="10.290323"
       height="31.403227"
       x="72.741936"
       y="-148.41129"
       transform="rotate(90)" /></g></svg>
